{
  "accessors": [
    {
      "bufferView": 2,
      "componentType": 5126,
      "count": 65532,
      "max": [
        176.94143676757813,
        63.94390869140625,
        189.49887084960938
      ],
      "min": [
        17.332977294921875,
        25.524410247802734,
        36.90040588378906
      ],
      "type": "VEC3"
    },
    {
      "bufferView": 2,
      "byteOffset": 786384,
      "componentType": 5126,
      "count": 65532,
      "max": [
        0.9999901652336121,
        0.9999996423721313,
        0.9999880194664001
      ],
      "min": [
        -0.9999985098838806,
        -0.9999995231628418,
        -0.9999929070472717
      ],
      "type": "VEC3"
    },
    {
      "bufferView": 1,
      "componentType": 5126,
      "count": 65532,
      "max": [
        0.9990491271018982,
        0.9989434480667114
      ],
      "min": [
        0.0010380148887634277,
        0.001138150691986084
      ],
      "type": "VEC2"
    },
    {
      "bufferView": 0,
      "componentType": 5125,
      "count": 217224,
      "type": "SCALAR"
    },
    {
      "bufferView": 2,
      "byteOffset": 1572768,
      "componentType": 5126,
      "count": 65534,
      "max": [
        180.85292053222656,
        63.04511642456055,
        171.80682373046875
      ],
      "min": [
        0.28816986083984375,
        6.507274627685547,
        5.451629638671875
      ],
      "type": "VEC3"
    },
    {
      "bufferView": 2,
      "byteOffset": 2359176,
      "componentType": 5126,
      "count": 65534,
      "max": [
        0.9999783635139465,
        1.0,
        0.9999957084655762
      ],
      "min": [
        -0.9999940991401672,
        -0.9999997615814209,
        -0.9999866485595703
      ],
      "type": "VEC3"
    },
    {
      "bufferView": 1,
      "byteOffset": 524256,
      "componentType": 5126,
      "count": 65534,
      "max": [
        0.9988585710525513,
        0.9989570379257202
      ],
      "min": [
        0.0010387719376012683,
        0.0011504888534545898
      ],
      "type": "VEC2"
    },
    {
      "bufferView": 0,
      "byteOffset": 868896,
      "componentType": 5125,
      "count": 211245,
      "type": "SCALAR"
    },
    {
      "bufferView": 2,
      "byteOffset": 3145584,
      "componentType": 5126,
      "count": 65532,
      "max": [
        177.23977661132813,
        63.71501541137695,
        188.15447998046875
      ],
      "min": [
        0.2860565185546875,
        6.669727325439453,
        0.8480300903320313
      ],
      "type": "VEC3"
    },
    {
      "bufferView": 2,
      "byteOffset": 3931968,
      "componentType": 5126,
      "count": 65532,
      "max": [
        0.9999971389770508,
        0.9999978542327881,
        0.9999961256980896
      ],
      "min": [
        -0.999963104724884,
        -0.999998152256012,
        -0.9999948143959045
      ],
      "type": "VEC3"
    },
    {
      "bufferView": 1,
      "byteOffset": 1048528,
      "componentType": 5126,
      "count": 65532,
      "max": [
        0.999045729637146,
        0.9989583492279053
      ],
      "min": [
        0.0010389096569269896,
        0.001284956932067871
      ],
      "type": "VEC2"
    },
    {
      "bufferView": 0,
      "byteOffset": 1713876,
      "componentType": 5125,
      "count": 208368,
      "type": "SCALAR"
    },
    {
      "bufferView": 2,
      "byteOffset": 4718352,
      "componentType": 5126,
      "count": 57713,
      "max": [
        180.8023223876953,
        63.18304443359375,
        188.44949340820313
      ],
      "min": [
        0.31982421875,
        7.046409606933594,
        0.2106170654296875
      ],
      "type": "VEC3"
    },
    {
      "bufferView": 2,
      "byteOffset": 5410908,
      "componentType": 5126,
      "count": 57713,
      "max": [
        0.9999740123748779,
        0.999994695186615,
        0.9999951124191284
      ],
      "min": [
        -0.9999885559082031,
        -0.9999951124191284,
        -0.9999257922172546
      ],
      "type": "VEC3"
    },
    {
      "bufferView": 1,
      "byteOffset": 1572784,
      "componentType": 5126,
      "count": 57713,
      "max": [
        0.9990745782852173,
        0.9989610910415649
      ],
      "min": [
        0.0010382126783952117,
        0.0009921789169311523
      ],
      "type": "VEC2"
    },
    {
      "bufferView": 0,
      "byteOffset": 2547348,
      "componentType": 5125,
      "count": 91227,
      "type": "SCALAR"
    },
    {
      "bufferView": 2,
      "byteOffset": 6103464,
      "componentType": 5126,
      "count": 65532,
      "max": [
        177.60498046875,
        63.69708251953125,
        189.48426818847656
      ],
      "min": [
        18.594497680664063,
        24.558765411376953,
        35.359771728515625
      ],
      "type": "VEC3"
    },
    {
      "bufferView": 2,
      "byteOffset": 6889848,
      "componentType": 5126,
      "count": 65532,
      "max": [
        0.9999996423721313,
        0.9999963641166687,
        0.9999945759773254
      ],
      "min": [
        -0.9999969005584717,
        -0.9999895095825195,
        -0.999995231628418
      ],
      "type": "VEC3"
    },
    {
      "bufferView": 1,
      "byteOffset": 2034488,
      "componentType": 5126,
      "count": 65532,
      "max": [
        0.9989586472511292,
        0.9989551901817322
      ],
      "min": [
        0.0010507727274671197,
        0.0009288191795349121
      ],
      "type": "VEC2"
    },
    {
      "bufferView": 0,
      "byteOffset": 2912256,
      "componentType": 5125,
      "count": 224310,
      "type": "SCALAR"
    },
    {
      "bufferView": 2,
      "byteOffset": 7676232,
      "componentType": 5126,
      "count": 65532,
      "max": [
        115.9687728881836,
        63.71742630004883,
        182.7767333984375
      ],
      "min": [
        0.2860565185546875,
        22.381534576416016,
        0.24013519287109375
      ],
      "type": "VEC3"
    },
    {
      "bufferView": 2,
      "byteOffset": 8462616,
      "componentType": 5126,
      "count": 65532,
      "max": [
        0.9999942183494568,
        0.9999985098838806,
        0.999992311000824
      ],
      "min": [
        -0.9999472498893738,
        -0.9998840093612671,
        -0.9999986886978149
      ],
      "type": "VEC3"
    },
    {
      "bufferView": 1,
      "byteOffset": 2558744,
      "componentType": 5126,
      "count": 65532,
      "max": [
        0.998997688293457,
        0.9989525675773621
      ],
      "min": [
        0.0010441432241350412,
        0.0015773773193359375
      ],
      "type": "VEC2"
    },
    {
      "bufferView": 0,
      "byteOffset": 3809496,
      "componentType": 5125,
      "count": 220848,
      "type": "SCALAR"
    },
    {
      "bufferView": 2,
      "byteOffset": 9249000,
      "componentType": 5126,
      "count": 65532,
      "max": [
        181.81552124023438,
        62.273353576660156,
        182.30906677246094
      ],
      "min": [
        6.491600036621094,
        0.0,
        2.3165359497070313
      ],
      "type": "VEC3"
    },
    {
      "bufferView": 2,
      "byteOffset": 10035384,
      "componentType": 5126,
      "count": 65532,
      "max": [
        0.999988317489624,
        0.999993622303009,
        0.9999989867210388
      ],
      "min": [
        -0.999997615814209,
        -0.9999061822891235,
        -0.9999459981918335
      ],
      "type": "VEC3"
    },
    {
      "bufferView": 1,
      "byteOffset": 3083000,
      "componentType": 5126,
      "count": 65532,
      "max": [
        0.9990190267562866,
        0.998960018157959
      ],
      "min": [
        0.001043432392179966,
        0.0009253621101379395
      ],
      "type": "VEC2"
    },
    {
      "bufferView": 0,
      "byteOffset": 4692888,
      "componentType": 5125,
      "count": 203166,
      "type": "SCALAR"
    },
    {
      "bufferView": 2,
      "byteOffset": 10821768,
      "componentType": 5126,
      "count": 65532,
      "max": [
        178.49472045898438,
        63.159454345703125,
        188.64581298828125
      ],
      "min": [
        0.410491943359375,
        25.268375396728516,
        10.107643127441406
      ],
      "type": "VEC3"
    },
    {
      "bufferView": 2,
      "byteOffset": 11608152,
      "componentType": 5126,
      "count": 65532,
      "max": [
        0.9999973773956299,
        0.9999988675117493,
        0.9999911785125732
      ],
      "min": [
        -0.999999463558197,
        -0.9999896287918091,
        -0.9999860525131226
      ],
      "type": "VEC3"
    },
    {
      "bufferView": 1,
      "byteOffset": 3607256,
      "componentType": 5126,
      "count": 65532,
      "max": [
        0.9990442395210266,
        0.9989598989486694
      ],
      "min": [
        0.0010405028006061912,
        0.001013636589050293
      ],
      "type": "VEC2"
    },
    {
      "bufferView": 0,
      "byteOffset": 5505552,
      "componentType": 5125,
      "count": 181881,
      "type": "SCALAR"
    },
    {
      "bufferView": 2,
      "byteOffset": 12394536,
      "componentType": 5126,
      "count": 6337,
      "max": [
        181.00399780273438,
        63.220035552978516,
        187.63824462890625
      ],
      "min": [
        1.0100936889648438,
        6.483650207519531,
        0.8480300903320313
      ],
      "type": "VEC3"
    },
    {
      "bufferView": 2,
      "byteOffset": 12470580,
      "componentType": 5126,
      "count": 6337,
      "max": [
        0.9999604821205139,
        0.9999734163284302,
        0.9999312162399292
      ],
      "min": [
        -0.9996573328971863,
        -0.9999907612800598,
        -0.999612033367157
      ],
      "type": "VEC3"
    },
    {
      "bufferView": 1,
      "byteOffset": 4131512,
      "componentType": 5126,
      "count": 6337,
      "max": [
        0.9985610842704773,
        0.9989423155784607
      ],
      "min": [
        0.001056571607477963,
        0.004299819469451904
      ],
      "type": "VEC2"
    },
    {
      "bufferView": 0,
      "byteOffset": 6233076,
      "componentType": 5125,
      "count": 8376,
      "type": "SCALAR"
    },
    {
      "bufferView": 2,
      "byteOffset": 12546624,
      "componentType": 5126,
      "count": 65532,
      "max": [
        177.08428955078125,
        63.220157623291016,
        187.54354858398438
      ],
      "min": [
        6.291511535644531,
        20.397472381591797,
        0.9166030883789063
      ],
      "type": "VEC3"
    },
    {
      "bufferView": 2,
      "byteOffset": 13333008,
      "componentType": 5126,
      "count": 65532,
      "max": [
        0.9999988079071045,
        0.9999966621398926,
        0.999994158744812
      ],
      "min": [
        -0.9999985694885254,
        -0.9999647736549377,
        -0.9999922513961792
      ],
      "type": "VEC3"
    },
    {
      "bufferView": 1,
      "byteOffset": 4182208,
      "componentType": 5126,
      "count": 65532,
      "max": [
        0.9990147948265076,
        0.9989529252052307
      ],
      "min": [
        0.0010397544829174876,
        0.0025942325592041016
      ],
      "type": "VEC2"
    },
    {
      "bufferView": 0,
      "byteOffset": 6266580,
      "componentType": 5125,
      "count": 207444,
      "type": "SCALAR"
    },
    {
      "bufferView": 2,
      "byteOffset": 14119392,
      "componentType": 5126,
      "count": 65532,
      "max": [
        180.5648956298828,
        62.73017883300781,
        189.90011596679688
      ],
      "min": [
        6.8075408935546875,
        6.795856475830078,
        2.7713088989257813
      ],
      "type": "VEC3"
    },
    {
      "bufferView": 2,
      "byteOffset": 14905776,
      "componentType": 5126,
      "count": 65532,
      "max": [
        0.9999991655349731,
        0.999998152256012,
        0.999998927116394
      ],
      "min": [
        -0.9999986886978149,
        -0.999751627445221,
        -0.9999974966049194
      ],
      "type": "VEC3"
    },
    {
      "bufferView": 1,
      "byteOffset": 4706464,
      "componentType": 5126,
      "count": 65532,
      "max": [
        0.9990736246109009,
        0.9989572167396545
      ],
      "min": [
        0.0010463888756930828,
        0.002471745014190674
      ],
      "type": "VEC2"
    },
    {
      "bufferView": 0,
      "byteOffset": 7096356,
      "componentType": 5125,
      "count": 200556,
      "type": "SCALAR"
    },
    {
      "bufferView": 2,
      "byteOffset": 15692160,
      "componentType": 5126,
      "count": 65533,
      "max": [
        178.5977325439453,
        63.419036865234375,
        188.48883056640625
      ],
      "min": [
        0.8541107177734375,
        25.423011779785156,
        10.478553771972656
      ],
      "type": "VEC3"
    },
    {
      "bufferView": 2,
      "byteOffset": 16478556,
      "componentType": 5126,
      "count": 65533,
      "max": [
        0.9999998807907104,
        0.9999938011169434,
        0.9999821782112122
      ],
      "min": [
        -0.9999980330467224,
        -0.9999986290931702,
        -0.999991774559021
      ],
      "type": "VEC3"
    },
    {
      "bufferView": 1,
      "byteOffset": 5230720,
      "componentType": 5126,
      "count": 65533,
      "max": [
        0.999081015586853,
        0.9989609122276306
      ],
      "min": [
        0.0010645664297044277,
        0.0016933083534240723
      ],
      "type": "VEC2"
    },
    {
      "bufferView": 0,
      "byteOffset": 7898580,
      "componentType": 5125,
      "count": 190986,
      "type": "SCALAR"
    },
    {
      "bufferView": 2,
      "byteOffset": 17264952,
      "componentType": 5126,
      "count": 65533,
      "max": [
        180.1945343017578,
        63.217830657958984,
        189.82864379882813
      ],
      "min": [
        0.0,
        6.848869323730469,
        4.1589813232421875
      ],
      "type": "VEC3"
    },
    {
      "bufferView": 2,
      "byteOffset": 18051348,
      "componentType": 5126,
      "count": 65533,
      "max": [
        0.9999974966049194,
        0.9999997615814209,
        0.9999914765357971
      ],
      "min": [
        -0.9999827742576599,
        -0.9999420642852783,
        -0.9999986886978149
      ],
      "type": "VEC3"
    },
    {
      "bufferView": 1,
      "byteOffset": 5754984,
      "componentType": 5126,
      "count": 65533,
      "max": [
        0.9990781545639038,
        0.9989611506462097
      ],
      "min": [
        0.0010390266543254256,
        0.002194225788116455
      ],
      "type": "VEC2"
    },
    {
      "bufferView": 0,
      "byteOffset": 8662524,
      "componentType": 5125,
      "count": 176595,
      "type": "SCALAR"
    },
    {
      "bufferView": 2,
      "byteOffset": 18837744,
      "componentType": 5126,
      "count": 215,
      "max": [
        174.052978515625,
        59.546661376953125,
        171.37310791015625
      ],
      "min": [
        23.334640502929688,
        28.191396713256836,
        43.187557220458984
      ],
      "type": "VEC3"
    },
    {
      "bufferView": 2,
      "byteOffset": 18840324,
      "componentType": 5126,
      "count": 215,
      "max": [
        0.9808436036109924,
        0.9977698922157288,
        0.972214937210083
      ],
      "min": [
        -0.9976624250411987,
        -0.9981680512428284,
        -0.9843401312828064
      ],
      "type": "VEC3"
    },
    {
      "bufferView": 1,
      "byteOffset": 6279248,
      "componentType": 5126,
      "count": 215,
      "max": [
        0.9680164456367493,
        0.9988685846328735
      ],
      "min": [
        0.001153661054559052,
        0.03551316261291504
      ],
      "type": "VEC2"
    },
    {
      "bufferView": 0,
      "byteOffset": 9368904,
      "componentType": 5125,
      "count": 249,
      "type": "SCALAR"
    },
    {
      "bufferView": 2,
      "byteOffset": 18842904,
      "componentType": 5126,
      "count": 65532,
      "max": [
        177.47976684570313,
        63.53561019897461,
        188.26278686523438
      ],
      "min": [
        6.02020263671875,
        25.840858459472656,
        14.87347412109375
      ],
      "type": "VEC3"
    },
    {
      "bufferView": 2,
      "byteOffset": 19629288,
      "componentType": 5126,
      "count": 65532,
      "max": [
        0.9999988079071045,
        0.9999995231628418,
        0.9999997019767761
      ],
      "min": [
        -0.9999985098838806,
        -0.9999998807907104,
        -0.9999991655349731
      ],
      "type": "VEC3"
    },
    {
      "bufferView": 1,
      "byteOffset": 6280968,
      "componentType": 5126,
      "count": 65532,
      "max": [
        0.998979389667511,
        0.9989622831344604
      ],
      "min": [
        0.0010415512369945645,
        0.0023055076599121094
      ],
      "type": "VEC2"
    },
    {
      "bufferView": 0,
      "byteOffset": 9369900,
      "componentType": 5125,
      "count": 211461,
      "type": "SCALAR"
    },
    {
      "bufferView": 2,
      "byteOffset": 20415672,
      "componentType": 5126,
      "count": 65532,
      "max": [
        181.81552124023438,
        61.310726165771484,
        126.79544067382813
      ],
      "min": [
        4.997322082519531,
        1.1663436889648438,
        0.06769561767578125
      ],
      "type": "VEC3"
    },
    {
      "bufferView": 2,
      "byteOffset": 21202056,
      "componentType": 5126,
      "count": 65532,
      "max": [
        0.9999996423721313,
        0.999995231628418,
        0.9999977946281433
      ],
      "min": [
        -0.9999947547912598,
        -0.9997077584266663,
        -0.9999964833259583
      ],
      "type": "VEC3"
    },
    {
      "bufferView": 1,
      "byteOffset": 6805224,
      "componentType": 5126,
      "count": 65532,
      "max": [
        0.9989275932312012,
        0.9989529848098755
      ],
      "min": [
        0.0010393675183877349,
        0.001345217227935791
      ],
      "type": "VEC2"
    },
    {
      "bufferView": 0,
      "byteOffset": 10215744,
      "componentType": 5125,
      "count": 188832,
      "type": "SCALAR"
    },
    {
      "bufferView": 2,
      "byteOffset": 21988440,
      "componentType": 5126,
      "count": 65532,
      "max": [
        178.15072631835938,
        63.31214904785156,
        189.46173095703125
      ],
      "min": [
        1.397308349609375,
        24.864055633544922,
        10.898605346679688
      ],
      "type": "VEC3"
    },
    {
      "bufferView": 2,
      "byteOffset": 22774824,
      "componentType": 5126,
      "count": 65532,
      "max": [
        0.9999964237213135,
        0.9999966025352478,
        0.999999463558197
      ],
      "min": [
        -0.9999992847442627,
        -0.9999986886978149,
        -0.999997079372406
      ],
      "type": "VEC3"
    },
    {
      "bufferView": 1,
      "byteOffset": 7329480,
      "componentType": 5126,
      "count": 65532,
      "max": [
        0.9989858269691467,
        0.9989595413208008
      ],
      "min": [
        0.0010418479796499014,
        0.0013041496276855469
      ],
      "type": "VEC2"
    },
    {
      "bufferView": 0,
      "byteOffset": 10971072,
      "componentType": 5125,
      "count": 187407,
      "type": "SCALAR"
    },
    {
      "bufferView": 2,
      "byteOffset": 23561208,
      "componentType": 5126,
      "count": 65534,
      "max": [
        88.80021667480469,
        62.81574630737305,
        176.10446166992188
      ],
      "min": [
        0.40482330322265625,
        25.578872680664063,
        9.637031555175781
      ],
      "type": "VEC3"
    },
    {
      "bufferView": 2,
      "byteOffset": 24347616,
      "componentType": 5126,
      "count": 65534,
      "max": [
        0.9999990463256836,
        0.9999998807907104,
        0.999982476234436
      ],
      "min": [
        -0.999962568283081,
        -0.9999980330467224,
        -0.9999994039535522
      ],
      "type": "VEC3"
    },
    {
      "bufferView": 1,
      "byteOffset": 7853736,
      "componentType": 5126,
      "count": 65534,
      "max": [
        0.998910665512085,
        0.9989580512046814
      ],
      "min": [
        0.0010470044799149036,
        0.0016068816184997559
      ],
      "type": "VEC2"
    },
    {
      "bufferView": 0,
      "byteOffset": 11720700,
      "componentType": 5125,
      "count": 195141,
      "type": "SCALAR"
    },
    {
      "bufferView": 2,
      "byteOffset": 25134024,
      "componentType": 5126,
      "count": 13956,
      "max": [
        180.7847137451172,
        63.0504035949707,
        189.47299194335938
      ],
      "min": [
        0.8783798217773438,
        0.15449142456054688,
        0.0
      ],
      "type": "VEC3"
    },
    {
      "bufferView": 2,
      "byteOffset": 25301496,
      "componentType": 5126,
      "count": 13956,
      "max": [
        0.9999880790710449,
        0.9999619126319885,
        0.9999189376831055
      ],
      "min": [
        -0.999914288520813,
        -0.9998497366905212,
        -0.9999679327011108
      ],
      "type": "VEC3"
    },
    {
      "bufferView": 1,
      "byteOffset": 8378008,
      "componentType": 5126,
      "count": 13956,
      "max": [
        0.9989475607872009,
        0.9989591836929321
      ],
      "min": [
        0.001048691337928176,
        0.0031515955924987793
      ],
      "type": "VEC2"
    },
    {
      "bufferView": 0,
      "byteOffset": 12501264,
      "componentType": 5125,
      "count": 18339,
      "type": "SCALAR"
    },
    {
      "bufferView": 2,
      "byteOffset": 25468968,
      "componentType": 5126,
      "count": 65532,
      "max": [
        177.20684814453125,
        64.13557434082031,
        189.90011596679688
      ],
      "min": [
        6.043510437011719,
        24.515018463134766,
        37.78160858154297
      ],
      "type": "VEC3"
    },
    {
      "bufferView": 2,
      "byteOffset": 26255352,
      "componentType": 5126,
      "count": 65532,
      "max": [
        0.9999862313270569,
        0.9999989867210388,
        0.9999969005584717
      ],
      "min": [
        -0.9999418258666992,
        -0.9999775886535645,
        -0.9999829530715942
      ],
      "type": "VEC3"
    },
    {
      "bufferView": 1,
      "byteOffset": 8489656,
      "componentType": 5126,
      "count": 65532,
      "max": [
        0.999078631401062,
        0.9989553093910217
      ],
      "min": [
        0.0010381581960245967,
        0.007907688617706299
      ],
      "type": "VEC2"
    },
    {
      "bufferView": 0,
      "byteOffset": 12574620,
      "componentType": 5125,
      "count": 190902,
      "type": "SCALAR"
    },
    {
      "bufferView": 2,
      "byteOffset": 27041736,
      "componentType": 5126,
      "count": 65533,
      "max": [
        181.42465209960938,
        48.68791580200195,
        125.47982025146484
      ],
      "min": [
        6.096099853515625,
        0.0,
        0.06769561767578125
      ],
      "type": "VEC3"
    },
    {
      "bufferView": 2,
      "byteOffset": 27828132,
      "componentType": 5126,
      "count": 65533,
      "max": [
        0.9999486207962036,
        0.9999988675117493,
        0.9999964237213135
      ],
      "min": [
        -0.9999890327453613,
        -0.9999621510505676,
        -0.9999946355819702
      ],
      "type": "VEC3"
    },
    {
      "bufferView": 1,
      "byteOffset": 9013912,
      "componentType": 5126,
      "count": 65533,
      "max": [
        0.9990730285644531,
        0.9989489316940308
      ],
      "min": [
        0.001041294657625258,
        0.009239733219146729
      ],
      "type": "VEC2"
    },
    {
      "bufferView": 0,
      "byteOffset": 13338228,
      "componentType": 5125,
      "count": 172311,
      "type": "SCALAR"
    },
    {
      "bufferView": 2,
      "byteOffset": 28614528,
      "componentType": 5126,
      "count": 65532,
      "max": [
        178.68479919433594,
        64.03522491455078,
        189.0884246826172
      ],
      "min": [
        2.5562362670898438,
        8.078865051269531,
        10.958663940429688
      ],
      "type": "VEC3"
    },
    {
      "bufferView": 2,
      "byteOffset": 29400912,
      "componentType": 5126,
      "count": 65532,
      "max": [
        0.9999352097511292,
        0.9999997615814209,
        0.9999319911003113
      ],
      "min": [
        -0.9999966025352478,
        -0.9999970197677612,
        -0.99998539686203
      ],
      "type": "VEC3"
    },
    {
      "bufferView": 1,
      "byteOffset": 9538176,
      "componentType": 5126,
      "count": 65532,
      "max": [
        0.9990749359130859,
        0.9989606142044067
      ],
      "min": [
        0.001041638315655291,
        0.009347915649414063
      ],
      "type": "VEC2"
    },
    {
      "bufferView": 0,
      "byteOffset": 14027472,
      "componentType": 5125,
      "count": 173652,
      "type": "SCALAR"
    },
    {
      "bufferView": 2,
      "byteOffset": 30187296,
      "componentType": 5126,
      "count": 65532,
      "max": [
        178.59432983398438,
        63.205692291259766,
        176.14801025390625
      ],
      "min": [
        0.0,
        28.206846237182617,
        9.634056091308594
      ],
      "type": "VEC3"
    },
    {
      "bufferView": 2,
      "byteOffset": 30973680,
      "componentType": 5126,
      "count": 65532,
      "max": [
        0.999980628490448,
        0.9999996423721313,
        0.9999828338623047
      ],
      "min": [
        -0.9999275207519531,
        -0.9999831914901733,
        -0.9999946355819702
      ],
      "type": "VEC3"
    },
    {
      "bufferView": 1,
      "byteOffset": 10062432,
      "componentType": 5126,
      "count": 65532,
      "max": [
        0.9990422129631042,
        0.9989622831344604
      ],
      "min": [
        0.0010378152364864945,
        0.007833003997802734
      ],
      "type": "VEC2"
    },
    {
      "bufferView": 0,
      "byteOffset": 14722080,
      "componentType": 5125,
      "count": 180828,
      "type": "SCALAR"
    },
    {
      "bufferView": 2,
      "byteOffset": 31760064,
      "componentType": 5126,
      "count": 41983,
      "max": [
        181.12411499023438,
        63.43404006958008,
        189.22714233398438
      ],
      "min": [
        0.08841705322265625,
        6.657768249511719,
        0.0
      ],
      "type": "VEC3"
    },
    {
      "bufferView": 2,
      "byteOffset": 32263860,
      "componentType": 5126,
      "count": 41983,
      "max": [
        0.9999740123748779,
        0.9999985098838806,
        0.9999828338623047
      ],
      "min": [
        -0.9999650120735168,
        -0.999951183795929,
        -0.9999751448631287
      ],
      "type": "VEC3"
    },
    {
      "bufferView": 1,
      "byteOffset": 10586688,
      "componentType": 5126,
      "count": 41983,
      "max": [
        0.999066174030304,
        0.9989594221115112
      ],
      "min": [
        0.0010458374163135886,
        0.008567869663238525
      ],
      "type": "VEC2"
    },
    {
      "bufferView": 0,
      "byteOffset": 15445392,
      "componentType": 5125,
      "count": 92823,
      "type": "SCALAR"
    }
  ],
  "asset": {
    "extras": {
      "author": "HoangHiepVu (https://sketchfab.com/HoangHiepVu)",
      "license": "CC-BY-4.0 (http://creativecommons.org/licenses/by/4.0/)",
      "source": "https://sketchfab.com/3d-models/la-cour-carree-louvre-paris-8d7f36be9a4345b3ba3d5a991f91836f",
      "title": "La Cour Carrée, Louvre, Paris"
    },
    "generator": "Sketchfab-12.67.0",
    "version": "2.0"
  },
  "bufferViews": [
    {
      "buffer": 0,
      "byteLength": 15816684,
      "name": "floatBufferViews",
      "target": 34963
    },
    {
      "buffer": 0,
      "byteLength": 10922552,
      "byteOffset": 15816684,
      "byteStride": 8,
      "name": "floatBufferViews",
      "target": 34962
    },
    {
      "buffer": 0,
      "byteLength": 32767656,
      "byteOffset": 26739236,
      "byteStride": 12,
      "name": "floatBufferViews",
      "target": 34962
    }
  ],
  "buffers": [
    {
      "byteLength": 59506892,
      "uri": "scene.bin"
    }
  ],
  "extensionsUsed": [
    "KHR_materials_unlit"
  ],
  "images": [
    {
      "uri": "textures/Model_0_baseColor.jpeg"
    },
    {
      "uri": "textures/Model_1_baseColor.jpeg"
    },
    {
      "uri": "textures/Model_2_baseColor.jpeg"
    },
    {
      "uri": "textures/Model_3_baseColor.jpeg"
    },
    {
      "uri": "textures/Model_4_baseColor.jpeg"
    }
  ],
  "materials": [
    {
      "doubleSided": true,
      "extensions": {
        "KHR_materials_unlit": {}
      },
      "name": "Model_0",
      "pbrMetallicRoughness": {
        "baseColorTexture": {
          "index": 0
        },
        "metallicFactor": 0.0
      }
    },
    {
      "doubleSided": true,
      "extensions": {
        "KHR_materials_unlit": {}
      },
      "name": "Model_1",
      "pbrMetallicRoughness": {
        "baseColorTexture": {
          "index": 1
        },
        "metallicFactor": 0.0
      }
    },
    {
      "doubleSided": true,
      "extensions": {
        "KHR_materials_unlit": {}
      },
      "name": "Model_2",
      "pbrMetallicRoughness": {
        "baseColorTexture": {
          "index": 2
        },
        "metallicFactor": 0.0
      }
    },
    {
      "doubleSided": true,
      "extensions": {
        "KHR_materials_unlit": {}
      },
      "name": "Model_3",
      "pbrMetallicRoughness": {
        "baseColorTexture": {
          "index": 3
        },
        "metallicFactor": 0.0
      }
    },
    {
      "doubleSided": true,
      "extensions": {
        "KHR_materials_unlit": {}
      },
      "name": "Model_4",
      "pbrMetallicRoughness": {
        "baseColorTexture": {
          "index": 4
        },
        "metallicFactor": 0.0
      }
    }
  ],
  "meshes": [
    {
      "name": "Object_0",
      "primitives": [
        {
          "attributes": {
            "NORMAL": 1,
            "POSITION": 0,
            "TEXCOORD_0": 2
          },
          "indices": 3,
          "material": 0,
          "mode": 4
        }
      ]
    },
    {
      "name": "Object_1",
      "primitives": [
        {
          "attributes": {
            "NORMAL": 5,
            "POSITION": 4,
            "TEXCOORD_0": 6
          },
          "indices": 7,
          "material": 0,
          "mode": 4
        }
      ]
    },
    {
      "name": "Object_2",
      "primitives": [
        {
          "attributes": {
            "NORMAL": 9,
            "POSITION": 8,
            "TEXCOORD_0": 10
          },
          "indices": 11,
          "material": 0,
          "mode": 4
        }
      ]
    },
    {
      "name": "Object_3",
      "primitives": [
        {
          "attributes": {
            "NORMAL": 13,
            "POSITION": 12,
            "TEXCOORD_0": 14
          },
          "indices": 15,
          "material": 0,
          "mode": 4
        }
      ]
    },
    {
      "name": "Object_4",
      "primitives": [
        {
          "attributes": {
            "NORMAL": 17,
            "POSITION": 16,
            "TEXCOORD_0": 18
          },
          "indices": 19,
          "material": 1,
          "mode": 4
        }
      ]
    },
    {
      "name": "Object_5",
      "primitives": [
        {
          "attributes": {
            "NORMAL": 21,
            "POSITION": 20,
            "TEXCOORD_0": 22
          },
          "indices": 23,
          "material": 1,
          "mode": 4
        }
      ]
    },
    {
      "name": "Object_6",
      "primitives": [
        {
          "attributes": {
            "NORMAL": 25,
            "POSITION": 24,
            "TEXCOORD_0": 26
          },
          "indices": 27,
          "material": 1,
          "mode": 4
        }
      ]
    },
    {
      "name": "Object_7",
      "primitives": [
        {
          "attributes": {
            "NORMAL": 29,
            "POSITION": 28,
            "TEXCOORD_0": 30
          },
          "indices": 31,
          "material": 1,
          "mode": 4
        }
      ]
    },
    {
      "name": "Object_8",
      "primitives": [
        {
          "attributes": {
            "NORMAL": 33,
            "POSITION": 32,
            "TEXCOORD_0": 34
          },
          "indices": 35,
          "material": 1,
          "mode": 4
        }
      ]
    },
    {
      "name": "Object_9",
      "primitives": [
        {
          "attributes": {
            "NORMAL": 37,
            "POSITION": 36,
            "TEXCOORD_0": 38
          },
          "indices": 39,
          "material": 2,
          "mode": 4
        }
      ]
    },
    {
      "name": "Object_10",
      "primitives": [
        {
          "attributes": {
            "NORMAL": 41,
            "POSITION": 40,
            "TEXCOORD_0": 42
          },
          "indices": 43,
          "material": 2,
          "mode": 4
        }
      ]
    },
    {
      "name": "Object_11",
      "primitives": [
        {
          "attributes": {
            "NORMAL": 45,
            "POSITION": 44,
            "TEXCOORD_0": 46
          },
          "indices": 47,
          "material": 2,
          "mode": 4
        }
      ]
    },
    {
      "name": "Object_12",
      "primitives": [
        {
          "attributes": {
            "NORMAL": 49,
            "POSITION": 48,
            "TEXCOORD_0": 50
          },
          "indices": 51,
          "material": 2,
          "mode": 4
        }
      ]
    },
    {
      "name": "Object_13",
      "primitives": [
        {
          "attributes": {
            "NORMAL": 53,
            "POSITION": 52,
            "TEXCOORD_0": 54
          },
          "indices": 55,
          "material": 2,
          "mode": 4
        }
      ]
    },
    {
      "name": "Object_14",
      "primitives": [
        {
          "attributes": {
            "NORMAL": 57,
            "POSITION": 56,
            "TEXCOORD_0": 58
          },
          "indices": 59,
          "material": 3,
          "mode": 4
        }
      ]
    },
    {
      "name": "Object_15",
      "primitives": [
        {
          "attributes": {
            "NORMAL": 61,
            "POSITION": 60,
            "TEXCOORD_0": 62
          },
          "indices": 63,
          "material": 3,
          "mode": 4
        }
      ]
    },
    {
      "name": "Object_16",
      "primitives": [
        {
          "attributes": {
            "NORMAL": 65,
            "POSITION": 64,
            "TEXCOORD_0": 66
          },
          "indices": 67,
          "material": 3,
          "mode": 4
        }
      ]
    },
    {
      "name": "Object_17",
      "primitives": [
        {
          "attributes": {
            "NORMAL": 69,
            "POSITION": 68,
            "TEXCOORD_0": 70
          },
          "indices": 71,
          "material": 3,
          "mode": 4
        }
      ]
    },
    {
      "name": "Object_18",
      "primitives": [
        {
          "attributes": {
            "NORMAL": 73,
            "POSITION": 72,
            "TEXCOORD_0": 74
          },
          "indices": 75,
          "material": 3,
          "mode": 4
        }
      ]
    },
    {
      "name": "Object_19",
      "primitives": [
        {
          "attributes": {
            "NORMAL": 77,
            "POSITION": 76,
            "TEXCOORD_0": 78
          },
          "indices": 79,
          "material": 4,
          "mode": 4
        }
      ]
    },
    {
      "name": "Object_20",
      "primitives": [
        {
          "attributes": {
            "NORMAL": 81,
            "POSITION": 80,
            "TEXCOORD_0": 82
          },
          "indices": 83,
          "material": 4,
          "mode": 4
        }
      ]
    },
    {
      "name": "Object_21",
      "primitives": [
        {
          "attributes": {
            "NORMAL": 85,
            "POSITION": 84,
            "TEXCOORD_0": 86
          },
          "indices": 87,
          "material": 4,
          "mode": 4
        }
      ]
    },
    {
      "name": "Object_22",
      "primitives": [
        {
          "attributes": {
            "NORMAL": 89,
            "POSITION": 88,
            "TEXCOORD_0": 90
          },
          "indices": 91,
          "material": 4,
          "mode": 4
        }
      ]
    },
    {
      "name": "Object_23",
      "primitives": [
        {
          "attributes": {
            "NORMAL": 93,
            "POSITION": 92,
            "TEXCOORD_0": 94
          },
          "indices": 95,
          "material": 4,
          "mode": 4
        }
      ]
    }
  ],
  "nodes": [
    {
      "children": [
        1
      ],
      "matrix": [
        0.004950183443725109,
        0.0,
        0.0,
        0.0,
        0.0,
        -0.004950183443725109,
        -2.1983230541367456e-18,
        0.0,
        0.0,
        2.1983230541367456e-18,
        -0.004950183443725109,
        0.0,
        0.0,
        -36.01037597656251,
        19.97245788574218,
        1.0
      ],
      "name": "Sketchfab_model"
    },
    {
      "children": [
        2,
        3,
        4,
        5,
        6,
        7,
        8,
        9,
        10,
        11,
        12,
        13,
        14,
        15,
        16,
        17,
        18,
        19,
        20,
        21,
        22,
        23,
        24,
        25
      ],
      "matrix": [
        1.0,
        0.0,
        0.0,
        0.0,
        0.0,
        1.0,
        0.0,
        0.0,
        0.0,
        0.0,
        1.0,
        0.0,
        -89.0487289428711,
        -60.05907440185547,
        -102.96944427490234,
        1.0
      ],
      "name": "Model.obj.cleaner.gles"
    },
    {
      "mesh": 0,
      "name": "Object_2"
    },
    {
      "mesh": 1,
      "name": "Object_3"
    },
    {
      "mesh": 2,
      "name": "Object_4"
    },
    {
      "mesh": 3,
      "name": "Object_5"
    },
    {
      "mesh": 4,
      "name": "Object_6"
    },
    {
      "mesh": 5,
      "name": "Object_7"
    },
    {
      "mesh": 6,
      "name": "Object_8"
    },
    {
      "mesh": 7,
      "name": "Object_9"
    },
    {
      "mesh": 8,
      "name": "Object_10"
    },
    {
      "mesh": 9,
      "name": "Object_11"
    },
    {
      "mesh": 10,
      "name": "Object_12"
    },
    {
      "mesh": 11,
      "name": "Object_13"
    },
    {
      "mesh": 12,
      "name": "Object_14"
    },
    {
      "mesh": 13,
      "name": "Object_15"
    },
    {
      "mesh": 14,
      "name": "Object_16"
    },
    {
      "mesh": 15,
      "name": "Object_17"
    },
    {
      "mesh": 16,
      "name": "Object_18"
    },
    {
      "mesh": 17,
      "name": "Object_19"
    },
    {
      "mesh": 18,
      "name": "Object_20"
    },
    {
      "mesh": 19,
      "name": "Object_21"
    },
    {
      "mesh": 20,
      "name": "Object_22"
    },
    {
      "mesh": 21,
      "name": "Object_23"
    },
    {
      "mesh": 22,
      "name": "Object_24"
    },
    {
      "mesh": 23,
      "name": "Object_25"
    }
  ],
  "samplers": [
    {
      "magFilter": 9729,
      "minFilter": 9987,
      "wrapS": 10497,
      "wrapT": 10497
    }
  ],
  "scene": 0,
  "scenes": [
    {
      "name": "Sketchfab_Scene",
      "nodes": [
        0
      ]
    }
  ],
  "textures": [
    {
      "sampler": 0,
      "source": 0
    },
    {
      "sampler": 0,
      "source": 1
    },
    {
      "sampler": 0,
      "source": 2
    },
    {
      "sampler": 0,
      "source": 3
    },
    {
      "sampler": 0,
      "source": 4
    }
  ]
}
